<svg width="100" height="100" viewBox="0 0 100 100" fill="none" xmlns="http://www.w3.org/2000/svg">
<rect width="100" height="100" fill="#171717"/>
<path fill-rule="evenodd" clip-rule="evenodd" d="M27.1271 20H25.2362V21.8909V44.2892L19.9926 47.1203L19 47.6562V48.7842V78.5563V80.4472H20.8909H44.1581H46.049V78.5563V66.7015H55.8128V78.5563V80.4472H57.7037H80.1091H82V78.5563V32.1974V29.1028L79.2463 30.5148L58.2315 41.2906V29.6443V26.4744L55.4422 27.9804L40.8694 35.8485V21.8909V20H38.9784H27.1271ZM37.0875 37.8904V23.7819H29.018V42.2473L37.0875 37.8904ZM22.7819 76.6654V49.9122L54.4497 32.8142V44.3853V47.48L57.2034 46.0679L78.2181 35.2921V76.6654H59.5946V64.8105V62.9196H57.7037H44.1581H42.2672V64.8105V76.6654H22.7819Z" fill="white"/>
</svg>
